HIERARCHY
ROOT Hips
{
	OFFSET 0.00000 0.00000 0.00000
	CHANNELS 6 Xposition Yposition Zposition Zrotation Yrotation Xrotation 
	JOINT LHipJoint
	{
		OFFSET 0 0 0
		CHANNELS 3 Zrotation Yrotation Xrotation
		JOINT LeftUpLeg
		{
			OFFSET 1.75344 -1.53157 0.77399
			CHANNELS 3 Zrotation Yrotation Xrotation
			JOINT LeftLeg
			{
				OFFSET 2.25415 -6.19323 0.00000
				CHANNELS 3 Zrotation Yrotation Xrotation
				JOINT LeftFoot
				{
					OFFSET 2.30342 -6.32861 0.00000
					CHANNELS 3 Zrotation Yrotation Xrotation
					JOINT LeftToeBase
					{
						OFFSET 0.10958 -0.30108 1.49206
						CHANNELS 3 Zrotation Yrotation Xrotation
						End Site
						{
							OFFSET 0.00000 -0.00000 0.77783
						}
					}
				}
			}
		}
	}
	JOINT RHipJoint
	{
		OFFSET 0 0 0
		CHANNELS 3 Zrotation Yrotation Xrotation
		JOINT RightUpLeg
		{
			OFFSET -1.81912 -1.53156 0.77399
			CHANNELS 3 Zrotation Yrotation Xrotation
			JOINT RightLeg
			{
				OFFSET -2.22882 -6.12365 0.00000
				CHANNELS 3 Zrotation Yrotation Xrotation
				JOINT RightFoot
				{
					OFFSET -2.21943 -6.09785 0.00000
					CHANNELS 3 Zrotation Yrotation Xrotation
					JOINT RightToeBase
					{
						OFFSET -0.18931 -0.52012 1.59379
						CHANNELS 3 Zrotation Yrotation Xrotation
						End Site
						{
							OFFSET -0.00000 -0.00000 0.84686
						}
					}
				}
			}
		}
	}
	JOINT LowerBack
	{
		OFFSET 0 0 0
		CHANNELS 3 Zrotation Yrotation Xrotation
		JOINT Spine
		{
			OFFSET -0.00200 1.66634 -0.14248
			CHANNELS 3 Zrotation Yrotation Xrotation
			JOINT Spine1
			{
				OFFSET -0.00875 1.64542 0.09514
				CHANNELS 3 Zrotation Yrotation Xrotation
				JOINT Neck
				{
					OFFSET 0 0 0
					CHANNELS 3 Zrotation Yrotation Xrotation
					JOINT Neck1
					{
						OFFSET 0.02257 1.59605 0.00839
						CHANNELS 3 Zrotation Yrotation Xrotation
						JOINT Head
						{
							OFFSET -0.10214 1.57530 -0.23335
							CHANNELS 3 Zrotation Yrotation Xrotation
							End Site
							{
								OFFSET -0.03588 1.60717 -0.08062
							}
						}
					}
				}
				JOINT LeftShoulder
				{
					OFFSET 0 0 0
					CHANNELS 3 Zrotation Yrotation Xrotation
					JOINT LeftArm
					{
						OFFSET 2.54983 1.10186 0.40078
						CHANNELS 3 Zrotation Yrotation Xrotation
						JOINT LeftForeArm
						{
							OFFSET 4.28840 -0.00000 0.00000
							CHANNELS 3 Zrotation Yrotation Xrotation
							JOINT LeftHand
							{
								OFFSET 3.06552 -0.00000 -0.00000
								CHANNELS 3 Zrotation Yrotation Xrotation
								JOINT LeftFingerBase
								{
									OFFSET 0 0 0
									CHANNELS 3 Zrotation Yrotation Xrotation
									JOINT LeftHandIndex1
									{
										OFFSET 0.75304 -0.00000 0.00000
										CHANNELS 3 Zrotation Yrotation Xrotation
										End Site
										{
											OFFSET 0.60712 -0.00000 0.00000
										}
									}
								}
								JOINT LThumb
								{
									OFFSET 0 0 0
									CHANNELS 3 Zrotation Yrotation Xrotation
									End Site
									{
										OFFSET 0.61639 -0.00000 0.61639
									}
								}
							}
						}
					}
				}
				JOINT RightShoulder
				{
					OFFSET 0 0 0
					CHANNELS 3 Zrotation Yrotation Xrotation
					JOINT RightArm
					{
						OFFSET -2.60909 1.35448 0.21802
						CHANNELS 3 Zrotation Yrotation Xrotation
						JOINT RightForeArm
						{
							OFFSET -4.52172 -0.00000 -0.00000
							CHANNELS 3 Zrotation Yrotation Xrotation
							JOINT RightHand
							{
								OFFSET -2.89140 -0.00000 0.00000
								CHANNELS 3 Zrotation Yrotation Xrotation
								JOINT RightFingerBase
								{
									OFFSET 0 0 0
									CHANNELS 3 Zrotation Yrotation Xrotation
									JOINT RightHandIndex1
									{
										OFFSET -0.68054 -0.00000 0.00000
										CHANNELS 3 Zrotation Yrotation Xrotation
										End Site
										{
											OFFSET -0.54867 -0.00000 0.00000
										}
									}
								}
								JOINT RThumb
								{
									OFFSET 0 0 0
									CHANNELS 3 Zrotation Yrotation Xrotation
									End Site
									{
										OFFSET -0.55705 -0.00000 0.55705
									}
								}
							}
						}
					}
				}
			}
		}
	}
}
MOTION
Frames: 15
Frame Time: .0083333
8.8607 16.9258 13.6284 -180.6790 -3.6097 -160.5520 0.0000 0.0000 0.0000 -25.8260 -20.0295 6.1444 2.1074 9.0863 26.0658 0.0482 21.2663 -30.3526 9.7932 17.2919 58.7949 0.0000 0.0000 0.0000 25.6564 10.3796 7.6333 -1.3091 -7.2476 20.4510 2.1439 -29.9700 -29.8378 -9.1129 -16.8799 56.4799 1.9088 0.3014 8.9208 -0.2150 0.5774 -4.3284 -1.3985 0.1255 -9.6142 -5.9767 -3.7365 -10.8820 3.2968 -4.4111 4.2915 1.8796 -2.1677 3.5985 0.0000 0.0000 0.0000 62.4184 -35.7779 -87.1844 18.0151 -28.1764 -4.5563 -0.0000 -0.0000 8.9199 10.0051 -48.3092 -7.5049 -7.1250 0.0000 -0.0000 -14.1297 -17.5207 18.1831 0.0000 0.0000 0.0000 -51.0165 34.0179 -65.0555 -24.5173 35.7065 -8.0065 0.0000 0.0000 3.1924 7.2701 -40.2406 -4.7112 7.1250 -0.0000 -0.0000 51.9644 -62.5560 -25.6761
8.8499 17.1315 13.3415 -180.7970 -4.0134 -159.8840 0.0000 0.0000 0.0000 -25.2481 -19.0021 4.6297 2.1488 9.1695 26.3269 0.1267 20.9938 -30.5228 9.8488 17.3239 58.9817 0.0000 0.0000 0.0000 25.4932 9.8637 6.5870 -1.3153 -7.2642 20.5005 1.5640 -28.7268 -31.4555 -9.3748 -17.0430 57.3775 1.8476 0.1784 7.5809 -0.0419 0.3704 -4.4851 -1.1342 0.0320 -9.0029 -6.3125 -3.8842 -11.0809 3.3748 -4.5554 4.6294 1.9559 -2.2418 3.7802 -0.0000 -0.0000 0.0000 60.8051 -34.1297 -86.2207 17.4474 -27.4438 -4.2915 -0.0000 -0.0000 9.9221 9.4064 -46.4460 -6.8462 -7.1250 0.0000 -0.0000 -14.1064 -15.6468 17.8487 -0.0000 -0.0000 0.0000 -50.9748 33.6863 -68.1866 -23.7717 34.9219 -7.5754 0.0000 0.0000 4.4624 6.9670 -39.2382 -4.4200 7.1250 -0.0000 -0.0000 50.2904 -61.9748 -23.9369
8.8415 17.3272 13.0689 -180.8410 -4.4130 -159.2950 0.0000 0.0000 0.0000 -24.5972 -18.0161 3.0843 2.1799 9.2311 26.5208 -0.8317 23.5068 -27.2235 10.1509 17.4939 59.9917 0.0000 0.0000 0.0000 25.2946 9.2186 5.3025 -1.3287 -7.2996 20.6060 2.1432 -29.8867 -29.6520 -9.2928 -16.9925 57.0975 1.9780 0.1058 6.4550 0.0085 0.2509 -4.5215 -1.1301 -0.0323 -8.3840 -6.4581 -4.0292 -11.2104 3.7657 -4.7527 5.0847 1.8807 -2.3124 3.5723 -0.0000 0.0000 0.0000 59.5070 -32.5383 -85.8893 16.9556 -26.7992 -4.0673 -0.0000 -0.0000 10.8957 9.8227 -45.0934 -6.9911 -7.1250 0.0000 -0.0000 -13.7155 -14.4192 17.1247 -0.0000 0.0000 0.0000 -50.4212 32.9906 -70.9044 -23.4589 34.5868 -7.3971 0.0000 0.0000 4.3996 6.5767 -38.6984 -4.1229 7.1250 -0.0000 -0.0000 49.2099 -61.7114 -22.9752
8.8370 17.5120 12.8058 -180.8760 -4.6006 -158.7940 0.0000 0.0000 0.0000 -24.1129 -17.1326 1.5624 2.1947 9.2603 26.6129 -2.9488 29.5380 -19.5773 8.9622 16.7833 55.9593 0.0000 0.0000 0.0000 25.0128 8.7120 3.9861 -1.3491 -7.3531 20.7658 3.2798 -32.1566 -25.6029 -9.0186 -16.8196 56.1543 2.0840 0.1603 6.1173 -0.0323 0.2998 -4.9135 -1.2366 -0.0338 -8.6085 -6.8229 -4.0660 -10.3726 4.3424 -4.8424 5.0038 2.1240 -2.3425 3.4416 0.0000 -0.0000 0.0000 58.0702 -31.6035 -85.3472 16.5773 -26.2972 -3.8982 -0.0000 -0.0000 11.2144 10.1809 -43.9277 -7.1017 -7.1250 0.0000 -0.0000 -13.3817 -13.3587 16.5086 0.0000 -0.0000 0.0000 -48.9807 32.3093 -71.8685 -23.5091 34.6409 -7.4257 0.0000 0.0000 3.1781 5.5774 -38.6664 -3.4914 7.1250 -0.0000 -0.0000 48.2590 -61.9482 -22.6786
8.8370 17.6876 12.5508 -181.0100 -4.6711 -158.4630 0.0000 0.0000 0.0000 -23.8806 -16.3384 0.1436 2.1989 9.2686 26.6392 -3.7593 32.0245 -10.0553 6.5151 14.9096 47.0156 0.0000 0.0000 0.0000 24.6380 8.2076 2.7967 -1.3693 -7.4057 20.9231 4.0330 -33.5886 -21.5999 -8.6904 -16.6043 55.0133 1.9192 0.2104 5.9560 0.0111 0.3473 -4.9290 -1.1035 0.0003 -8.5291 -7.8501 -3.9784 -9.6487 5.4782 -4.7108 4.2572 2.6610 -2.2548 3.1446 0.0000 -0.0000 0.0000 56.4262 -30.2378 -84.8966 16.3313 -25.9678 -3.7899 -0.0000 -0.0000 11.0109 10.9077 -42.7348 -7.4505 -7.1250 0.0000 -0.0000 -12.8674 -12.3299 15.6719 0.0000 -0.0000 0.0000 -47.7011 31.0919 -72.5639 -23.7838 34.9348 -7.5824 0.0000 0.0000 1.6099 3.9373 -39.1223 -2.4867 7.1250 -0.0000 -0.0000 47.3728 -62.6941 -22.9786
8.8377 17.8575 12.3066 -181.1400 -4.8658 -158.3860 0.0000 0.0000 0.0000 -23.7537 -15.9015 -0.8996 2.1955 9.2619 26.6180 -3.6100 32.8603 -2.3146 4.3423 12.6025 37.8980 0.0000 0.0000 0.0000 24.3921 7.7216 1.8122 -1.3873 -7.4524 21.0628 4.3749 -34.2511 -18.6958 -8.2571 -16.3051 53.4834 1.7626 0.2308 6.1517 0.1105 0.3792 -4.8269 -0.9163 0.0333 -8.5334 -7.0872 -4.5174 -12.1801 4.0573 -5.2860 6.5296 2.0017 -2.5670 4.2233 -0.0000 -0.0000 0.0000 54.6697 -29.0477 -84.7482 16.1508 -25.7247 -3.7112 -0.0000 -0.0000 10.8468 11.9023 -41.6664 -7.9765 -7.1250 0.0000 -0.0000 -12.2332 -11.4657 14.7245 -0.0000 -0.0000 0.0000 -46.3297 29.7255 -72.8103 -24.1275 35.2988 -7.7801 0.0000 0.0000 0.4154 2.5551 -39.8482 -1.6378 7.1250 -0.0000 -0.0000 47.1169 -63.5696 -23.7734
8.8371 18.0213 12.0737 -181.1130 -5.0858 -158.5070 0.0000 0.0000 0.0000 -23.6572 -16.1567 -1.5043 2.1878 9.2468 26.5703 -3.5271 32.5740 -2.1301 4.0312 12.2018 36.4495 0.0000 0.0000 0.0000 24.3522 7.2848 0.9267 -1.4021 -7.4904 21.1765 4.4961 -34.5053 -17.1651 -8.0814 -16.1788 52.8555 1.8327 0.2302 6.7642 0.2062 0.4195 -4.7103 -0.8640 0.0566 -8.7667 -7.4607 -4.5984 -12.1670 4.4076 -5.3661 6.3921 2.1640 -2.5963 4.2035 0.0000 0.0000 0.0000 52.7635 -28.0138 -84.5094 16.0781 -25.6264 -3.6797 -0.0000 -0.0000 10.7679 11.8492 -40.8310 -7.8110 -7.1250 0.0000 -0.0000 -12.1478 -10.6482 14.4809 0.0000 0.0000 0.0000 -44.9883 28.6539 -73.2806 -24.1904 35.3650 -7.8165 0.0000 0.0000 0.3821 1.5555 -40.6068 -1.0126 7.1250 -0.0000 -0.0000 47.3081 -64.3688 -24.7493
8.8384 18.1731 11.8492 -180.9520 -5.2882 -158.8320 0.0000 0.0000 0.0000 -23.5944 -17.1711 -1.6838 2.1765 9.2244 26.4998 -3.7855 32.9563 -4.6301 4.9386 13.3143 40.5566 0.0000 0.0000 0.0000 24.4981 6.9544 0.1803 -1.4152 -7.5238 21.2768 4.6977 -35.0743 -15.9817 -7.9492 -16.0817 52.3794 2.0187 0.2109 7.5178 0.2910 0.4584 -4.4329 -0.8899 0.0773 -8.9077 -7.4971 -4.7350 -12.4710 4.4445 -5.5273 6.5175 2.1613 -2.6716 4.3027 0.0000 0.0000 0.0000 50.7285 -26.8338 -83.7932 16.1051 -25.6629 -3.6913 -0.0000 -0.0000 10.5751 10.4715 -40.0354 -6.7801 -7.1250 0.0000 -0.0000 -12.7427 -9.6533 15.0441 0.0000 0.0000 0.0000 -43.6748 27.6500 -73.8806 -24.0276 35.1934 -7.7225 0.0000 0.0000 1.0091 0.9459 -41.4868 -0.6266 7.1250 -0.0000 -0.0000 48.1084 -65.1398 -26.0899
8.8419 18.3165 11.6322 -180.8740 -5.4937 -159.3080 0.0000 0.0000 0.0000 -23.6114 -18.5112 -1.6453 2.1572 9.1860 26.3790 -3.7689 32.0680 -9.9652 6.2924 14.7059 46.1443 0.0000 0.0000 0.0000 24.5965 6.8578 -0.4454 -1.4322 -7.5670 21.4063 4.9469 -35.8159 -15.1717 -7.7218 -15.9108 51.5545 2.0616 0.1549 8.7366 0.4007 0.4469 -4.2121 -0.8035 0.0781 -9.3867 -7.4260 -4.8562 -12.7082 4.2575 -5.6700 6.6984 2.0741 -2.7487 4.3974 -0.0000 -0.0000 0.0000 48.4560 -25.7494 -82.7899 16.1384 -25.7080 -3.7058 -0.0000 -0.0000 10.5279 9.0914 -39.4510 -5.8059 -7.1250 0.0000 -0.0000 -13.3786 -8.8773 15.6836 -0.0000 -0.0000 0.0000 -42.3164 26.7724 -73.8329 -23.7393 34.8874 -7.5569 0.0000 0.0000 1.4980 0.8007 -42.1329 -0.5372 7.1250 -0.0000 -0.0000 49.0234 -65.6122 -27.2060
8.8414 18.4586 11.4237 -180.9140 -5.5572 -159.7090 0.0000 0.0000 0.0000 -23.7225 -19.9678 -1.6816 2.1260 9.1237 26.1831 -3.6146 31.4602 -15.5025 7.8100 15.9777 51.8756 0.0000 0.0000 0.0000 24.4469 6.9446 -1.2536 -1.4543 -7.6226 21.5736 5.0585 -36.1460 -15.2599 -7.7174 -15.9074 51.5384 1.9419 0.1166 10.0713 0.5337 0.4396 -4.0464 -0.6002 0.0886 -9.9961 -7.4571 -4.9168 -12.6642 4.0624 -5.7320 6.7424 2.0138 -2.7923 4.4023 -0.0000 -0.0000 0.0000 45.9017 -24.7209 -81.7584 16.1756 -25.7582 -3.7219 -0.0000 -0.0000 10.8748 8.3901 -39.0971 -5.3140 -7.1250 0.0000 -0.0000 -13.7006 -8.4339 15.9930 -0.0000 -0.0000 0.0000 -41.1230 26.1172 -73.3842 -23.2490 34.3600 -7.2784 0.0000 0.0000 1.6824 -0.1035 -42.6551 0.0701 7.1250 -0.0000 -0.0000 49.0733 -66.2237 -27.8940
8.8361 18.5924 11.2184 -180.9210 -5.3956 -159.9760 0.0000 0.0000 0.0000 -23.7998 -21.2967 -1.9871 2.0813 9.0334 25.8999 -3.0134 30.0291 -20.7853 8.9386 16.7680 55.8774 0.0000 0.0000 0.0000 24.1811 7.2755 -2.2820 -1.4780 -7.6816 21.7511 5.0379 -36.0851 -15.3235 -7.7167 -15.9069 51.5356 1.8575 0.1374 11.1104 0.6353 0.5005 -3.7683 -0.4610 0.1315 -10.3040 -7.5696 -4.8903 -12.7965 4.0687 -5.6700 6.8040 2.0354 -2.7636 4.4425 -0.0000 0.0000 0.0000 43.4322 -23.6278 -81.1309 16.1572 -25.7334 -3.7140 -0.0000 -0.0000 11.6214 8.1002 -38.7154 -5.0869 -7.1250 0.0000 -0.0000 -13.8129 -8.0245 16.0478 -0.0000 0.0000 0.0000 -40.0191 25.6192 -73.0631 -22.6261 33.6774 -6.9298 0.0000 0.0000 1.9285 -1.6070 -43.2906 1.1021 7.1250 -0.0000 -0.0000 48.8109 -67.0951 -28.6309
8.8291 18.7135 11.0090 -180.8990 -5.1325 -160.2470 0.0000 0.0000 0.0000 -23.7917 -22.1735 -2.5156 2.0231 8.9141 25.5269 -2.3294 28.5753 -24.6013 9.4137 17.0667 57.5100 0.0000 0.0000 0.0000 23.8694 7.7610 -3.3593 -1.5031 -7.7436 21.9381 4.9387 -35.7920 -15.0450 -7.5603 -15.7861 50.9630 1.8491 0.1827 11.9462 0.6558 0.5879 -3.3468 -0.4572 0.1814 -10.3292 -7.7084 -4.8697 -13.3919 4.2817 -5.5996 7.1345 2.1153 -2.7148 4.6474 0.0000 0.0000 0.0000 41.2977 -22.7618 -81.4507 16.0750 -25.6223 -3.6784 -0.0000 -0.0000 12.8467 8.3011 -38.3380 -5.1714 -7.1250 0.0000 -0.0000 -13.6748 -7.6884 15.8095 0.0000 0.0000 0.0000 -38.7908 25.2247 -72.7566 -21.9521 32.9229 -6.5598 0.0000 0.0000 2.3935 -2.2430 -43.7349 1.5511 7.1250 -0.0000 -0.0000 49.0427 -67.5801 -29.2993
8.8210 18.8282 10.8008 -180.9060 -4.9257 -160.5070 0.0000 0.0000 0.0000 -23.6749 -22.7308 -3.2304 1.9556 8.7730 25.0878 -1.5756 26.9289 -27.6990 9.6846 17.2286 58.4290 0.0000 0.0000 0.0000 23.5028 8.2327 -4.5424 -1.5246 -7.7964 22.0975 4.8483 -35.5201 -15.0469 -7.4702 -15.7154 50.6310 1.8899 0.1926 12.8215 0.6199 0.6262 -2.9574 -0.5327 0.1993 -10.4113 -7.7005 -4.9191 -13.9862 4.4067 -5.6426 7.5978 2.1345 -2.7220 4.8937 -0.0000 0.0000 0.0000 39.3209 -22.2268 -82.1069 15.9861 -25.5019 -3.6400 -0.0000 -0.0000 13.8392 9.3143 -37.9444 -5.7589 -7.1250 0.0000 -0.0000 -13.1132 -7.4532 15.0795 -0.0000 0.0000 0.0000 -37.2899 25.1514 -72.1311 -21.3280 32.2092 -6.2238 0.0000 0.0000 3.0032 -2.3656 -44.1076 1.6469 7.1250 -0.0000 -0.0000 49.6345 -67.8570 -30.0105
8.8139 18.9350 10.6009 -180.9480 -4.6846 -160.6870 0.0000 0.0000 0.0000 -23.4486 -23.0770 -4.2274 1.8875 8.6277 24.6375 -0.9335 25.5269 -30.0067 9.9115 17.3598 59.1922 0.0000 0.0000 0.0000 23.0667 8.8407 -5.8898 -1.5332 -7.8174 22.1609 4.8110 -35.4068 -15.0822 -7.3082 -15.5861 50.0307 1.8715 0.1937 13.7555 0.5895 0.6417 -2.6957 -0.5648 0.2057 -10.6686 -7.6382 -4.9194 -13.9788 4.3674 -5.6538 7.7607 2.1103 -2.7284 4.9411 -0.0000 -0.0000 0.0000 37.4885 -22.0113 -82.9088 15.7648 -25.2007 -3.5452 -0.0000 -0.0000 14.3149 10.7128 -37.8301 -6.6184 -7.1250 0.0000 -0.0000 -12.3738 -7.5534 14.2077 -0.0000 -0.0000 0.0000 -35.6900 25.4131 -70.9974 -20.7108 31.4892 -5.8981 0.0000 0.0000 3.4823 -3.0262 -44.8078 2.1336 7.1250 -0.0000 -0.0000 50.4079 -68.5076 -31.2521
8.8054 19.0325 10.4044 -180.9590 -4.4048 -160.8200 0.0000 0.0000 0.0000 -23.1173 -23.3999 -5.3780 1.8262 8.4943 24.2259 -0.6250 24.8759 -31.0866 10.0083 17.4145 59.5163 0.0000 0.0000 0.0000 22.6490 9.9442 -7.1603 -1.5283 -7.8055 22.1248 4.6267 -34.8864 -16.7903 -7.4600 -15.7073 50.5933 1.9700 0.1861 14.8137 0.5112 0.6658 -2.5848 -0.7187 0.2026 -11.1641 -7.6371 -4.8515 -13.5889 4.3915 -5.5960 7.8355 2.1300 -2.7027 4.8986 0.0000 0.0000 0.0000 35.6155 -22.1389 -83.4388 15.6216 -25.0049 -3.4845 -0.0000 -0.0000 13.9963 11.3650 -37.7656 -7.0177 -7.1250 0.0000 -0.0000 -12.0266 -7.5933 13.7988 0.0000 0.0000 0.0000 -33.9155 26.1184 -69.6225 -20.1251 30.7928 -5.5952 0.0000 0.0000 4.1095 -3.7836 -45.5835 2.7045 7.1250 -0.0000 -0.0000 51.3330 -69.2296 -32.6947
